<svg xmlns="http://www.w3.org/2000/svg" xmlns:xlink="http://www.w3.org/1999/xlink" width="500" zoomAndPan="magnify" viewBox="0 0 375 374.999991" height="500" preserveAspectRatio="xMidYMid meet" version="1.0"><defs><g/><clipPath id="f4875788ad"><path d="M 103.203125 208 L 161.703125 208 L 161.703125 219.695312 L 103.203125 219.695312 Z M 103.203125 208 " clip-rule="nonzero"/></clipPath><clipPath id="5c63b4dd71"><path d="M 108 155.195312 L 161.703125 155.195312 L 161.703125 213 L 108 213 Z M 108 155.195312 " clip-rule="nonzero"/></clipPath></defs><rect x="-37.5" width="450" fill="#ffffff" y="-37.499999" height="449.999989" fill-opacity="1"/><rect x="-37.5" width="450" fill="#ffffff" y="-37.499999" height="449.999989" fill-opacity="1"/><g clip-path="url(#f4875788ad)"><path fill="#004aad" d="M 196.097656 208.355469 L 105.316406 208.355469 C 104.132812 208.355469 103.339844 209.144531 103.339844 210.328125 C 103.339844 215.65625 107.683594 219.800781 112.8125 219.800781 L 188.597656 219.800781 C 193.925781 219.800781 198.070312 215.460938 198.070312 210.328125 C 198.070312 209.34375 197.28125 208.355469 196.097656 208.355469 Z M 196.097656 208.355469 " fill-opacity="1" fill-rule="nonzero"/></g><path fill="#004aad" d="M 156.824219 187.4375 L 151.691406 187.832031 L 154.0625 193.160156 L 152.085938 194.144531 L 149.71875 188.621094 L 145.96875 191.976562 L 145.96875 177.175781 Z M 156.824219 187.4375 " fill-opacity="1" fill-rule="nonzero"/><g clip-path="url(#5c63b4dd71)"><path fill="#004aad" d="M 184.847656 155.269531 L 116.5625 155.269531 C 112.222656 155.269531 108.867188 158.625 108.867188 162.964844 L 108.867188 204.605469 C 108.867188 208.949219 112.222656 212.300781 116.5625 212.300781 L 184.847656 212.300781 C 189.191406 212.300781 192.542969 208.945312 192.542969 204.605469 L 192.542969 162.964844 C 192.542969 158.621094 189.1875 155.269531 184.847656 155.269531 Z M 184.847656 202.832031 C 184.847656 204.015625 184.058594 204.804688 182.875 204.804688 L 118.539062 204.804688 C 117.351562 204.804688 116.5625 204.015625 116.5625 202.832031 L 116.5625 164.9375 C 116.5625 163.753906 117.351562 162.964844 118.539062 162.964844 L 182.875 162.964844 C 184.058594 162.964844 184.847656 163.753906 184.847656 164.9375 Z M 184.847656 202.832031 " fill-opacity="1" fill-rule="nonzero"/></g><g fill="#004aad" fill-opacity="1"><g transform="translate(162.451386, 188.106448)"><g><path d="M 12.921875 -21.53125 C 14.367188 -21.53125 15.875 -21.429688 17.4375 -21.234375 C 19 -21.035156 20.820312 -20.765625 22.90625 -20.421875 L 22.90625 -2.109375 C 22.90625 2.273438 21.445312 5.675781 18.53125 8.09375 C 18.164062 8.40625 17.335938 8.664062 16.046875 8.875 C 14.765625 9.09375 13.3125 9.203125 11.6875 9.203125 C 8.15625 9.203125 5.363281 8.738281 3.3125 7.8125 C 3.28125 7.144531 3.332031 6.257812 3.46875 5.15625 C 3.613281 4.050781 3.757812 3.175781 3.90625 2.53125 C 6.113281 2.863281 8.273438 3.03125 10.390625 3.03125 C 11.460938 3.03125 12.375 2.976562 13.125 2.875 C 13.882812 2.769531 14.351562 2.609375 14.53125 2.390625 C 14.78125 2.148438 14.96875 1.226562 15.09375 -0.375 C 15.125 -0.800781 15.140625 -1.425781 15.140625 -2.25 L 15.140625 -3.40625 C 14.367188 -2.269531 13.382812 -1.457031 12.1875 -0.96875 C 10.988281 -0.476562 9.914062 -0.234375 8.96875 -0.234375 C 6.394531 -0.234375 4.445312 -1.078125 3.125 -2.765625 C 1.8125 -4.453125 1.15625 -6.921875 1.15625 -10.171875 C 1.15625 -12.316406 1.453125 -14.332031 2.046875 -16.21875 C 2.640625 -18.101562 3.460938 -19.410156 4.515625 -20.140625 C 5.179688 -20.609375 6.273438 -20.957031 7.796875 -21.1875 C 9.316406 -21.414062 11.023438 -21.53125 12.921875 -21.53125 Z M 11.953125 -5.984375 C 13.085938 -5.984375 14.117188 -6.164062 15.046875 -6.53125 L 15.046875 -16.140625 C 14.703125 -16.203125 14.195312 -16.265625 13.53125 -16.328125 C 13.21875 -16.359375 12.753906 -16.375 12.140625 -16.375 C 11.191406 -16.375 10.59375 -16.28125 10.34375 -16.09375 C 10.007812 -15.851562 9.742188 -15.171875 9.546875 -14.046875 C 9.347656 -12.929688 9.25 -11.757812 9.25 -10.53125 C 9.25 -8.84375 9.4375 -7.660156 9.8125 -6.984375 C 10.195312 -6.316406 10.910156 -5.984375 11.953125 -5.984375 Z M 11.953125 -5.984375 "/></g></g></g><g fill="#004aad" fill-opacity="1"><g transform="translate(187.197299, 188.106448)"><g><path d="M 14.484375 0 L 13.75 -2.890625 C 12.34375 -0.597656 10.378906 0.546875 7.859375 0.546875 C 5.804688 0.546875 4.128906 -0.0234375 2.828125 -1.171875 C 1.523438 -2.316406 0.875 -3.9375 0.875 -6.03125 C 0.875 -7.3125 1.25 -8.4375 2 -9.40625 C 2.75 -10.375 3.785156 -11.054688 5.109375 -11.453125 C 6.828125 -11.941406 9.476562 -12.21875 13.0625 -12.28125 C 13.0625 -14.300781 12.96875 -15.375 12.78125 -15.5 C 12.632812 -15.625 12.144531 -15.6875 11.3125 -15.6875 C 10.789062 -15.6875 10.070312 -15.65625 9.15625 -15.59375 C 7.6875 -15.53125 5.691406 -15.363281 3.171875 -15.09375 C 2.929688 -16.75 2.75 -18.523438 2.625 -20.421875 C 4.25 -20.765625 5.945312 -21.050781 7.71875 -21.28125 C 9.5 -21.507812 11.097656 -21.625 12.515625 -21.625 C 14.960938 -21.625 16.800781 -21.21875 18.03125 -20.40625 C 19.257812 -19.59375 20.054688 -18.523438 20.421875 -17.203125 C 20.785156 -15.878906 20.957031 -14.207031 20.9375 -12.1875 L 20.890625 -5.421875 L 21.015625 0 Z M 10.53125 -4.59375 C 11.332031 -4.59375 12.175781 -4.75 13.0625 -5.0625 L 13.0625 -8.46875 L 12.703125 -8.46875 C 10.429688 -8.46875 9.171875 -8.34375 8.921875 -8.09375 C 8.765625 -7.9375 8.648438 -7.707031 8.578125 -7.40625 C 8.503906 -7.101562 8.46875 -6.8125 8.46875 -6.53125 C 8.46875 -5.789062 8.632812 -5.28125 8.96875 -5 C 9.300781 -4.726562 9.820312 -4.59375 10.53125 -4.59375 Z M 10.53125 -4.59375 "/></g></g></g><g fill="#004aad" fill-opacity="1"><g transform="translate(209.7814, 188.106448)"><g><path d="M 20.234375 -5.15625 L 20.234375 0 L 1.234375 0 L 1.234375 -5.296875 L 11.453125 -16.140625 L 1.515625 -16.140625 L 1.515625 -21.15625 L 20.015625 -21.15625 L 20.015625 -15.921875 L 9.84375 -5.15625 Z M 20.234375 -5.15625 "/></g></g></g><g fill="#004aad" fill-opacity="1"><g transform="translate(231.261593, 188.106448)"><g><path d="M 14.71875 -5.515625 C 15.488281 -5.515625 16.914062 -5.59375 19 -5.75 C 19.269531 -5.75 19.773438 -5.78125 20.515625 -5.84375 L 21.203125 -1.109375 C 18.835938 -0.00390625 15.769531 0.546875 12 0.546875 C 8.476562 0.546875 5.773438 -0.335938 3.890625 -2.109375 C 2.003906 -3.890625 1.0625 -6.578125 1.0625 -10.171875 C 1.0625 -12.003906 1.296875 -13.78125 1.765625 -15.5 C 2.242188 -17.21875 2.789062 -18.414062 3.40625 -19.09375 C 4.050781 -19.769531 5.242188 -20.351562 6.984375 -20.84375 C 8.734375 -21.332031 10.46875 -21.578125 12.1875 -21.578125 C 14.945312 -21.578125 17.015625 -21.082031 18.390625 -20.09375 C 19.773438 -19.113281 20.679688 -17.757812 21.109375 -16.03125 C 21.546875 -14.300781 21.765625 -11.976562 21.765625 -9.0625 C 19.671875 -8.9375 17.628906 -8.875 15.640625 -8.875 L 9.109375 -8.875 C 9.109375 -7.894531 9.3125 -7.160156 9.71875 -6.671875 C 10.132812 -6.179688 10.726562 -5.863281 11.5 -5.71875 C 12.269531 -5.582031 13.34375 -5.515625 14.71875 -5.515625 Z M 9.5625 -16.09375 C 9.382812 -16.007812 9.25 -15.613281 9.15625 -14.90625 C 9.0625 -14.195312 9 -13.398438 8.96875 -12.515625 L 11.359375 -12.515625 C 12.804688 -12.515625 13.847656 -12.53125 14.484375 -12.5625 C 14.484375 -14.03125 14.273438 -15.070312 13.859375 -15.6875 C 13.453125 -16.300781 12.742188 -16.609375 11.734375 -16.609375 C 10.898438 -16.609375 10.175781 -16.4375 9.5625 -16.09375 Z M 9.5625 -16.09375 "/></g></g></g><g fill="#000000" fill-opacity="1"><g transform="translate(164.691087, 212.950006)"><g><path d="M 4.640625 -7.46875 C 3.722656 -7.46875 3.007812 -7.171875 2.5 -6.578125 C 2 -5.992188 1.75 -5.191406 1.75 -4.171875 C 1.75 -3.160156 2.007812 -2.34375 2.53125 -1.71875 C 3.0625 -1.101562 3.78125 -0.796875 4.6875 -0.796875 C 5.84375 -0.796875 6.710938 -1.367188 7.296875 -2.515625 L 8.203125 -2.0625 C 7.867188 -1.351562 7.394531 -0.8125 6.78125 -0.4375 C 6.164062 -0.0625 5.453125 0.125 4.640625 0.125 C 3.804688 0.125 3.082031 -0.046875 2.46875 -0.390625 C 1.863281 -0.742188 1.398438 -1.238281 1.078125 -1.875 C 0.765625 -2.519531 0.609375 -3.285156 0.609375 -4.171875 C 0.609375 -5.484375 0.960938 -6.507812 1.671875 -7.25 C 2.390625 -8 3.375 -8.375 4.625 -8.375 C 5.507812 -8.375 6.242188 -8.203125 6.828125 -7.859375 C 7.421875 -7.515625 7.859375 -7.003906 8.140625 -6.328125 L 7.078125 -5.984375 C 6.878906 -6.460938 6.566406 -6.828125 6.140625 -7.078125 C 5.722656 -7.335938 5.222656 -7.46875 4.640625 -7.46875 Z M 4.640625 -7.46875 "/></g></g></g><g fill="#000000" fill-opacity="1"><g transform="translate(180.317101, 212.950006)"><g><path d="M 8.765625 -4.171875 C 8.765625 -3.304688 8.597656 -2.546875 8.265625 -1.890625 C 7.929688 -1.242188 7.457031 -0.742188 6.84375 -0.390625 C 6.226562 -0.046875 5.5 0.125 4.65625 0.125 C 3.8125 0.125 3.082031 -0.046875 2.46875 -0.390625 C 1.851562 -0.742188 1.378906 -1.242188 1.046875 -1.890625 C 0.722656 -2.535156 0.5625 -3.296875 0.5625 -4.171875 C 0.5625 -5.484375 0.921875 -6.507812 1.640625 -7.25 C 2.367188 -8 3.378906 -8.375 4.671875 -8.375 C 5.515625 -8.375 6.242188 -8.207031 6.859375 -7.875 C 7.472656 -7.539062 7.941406 -7.054688 8.265625 -6.421875 C 8.597656 -5.785156 8.765625 -5.035156 8.765625 -4.171875 Z M 7.625 -4.171875 C 7.625 -5.191406 7.363281 -5.992188 6.84375 -6.578125 C 6.332031 -7.171875 5.609375 -7.46875 4.671875 -7.46875 C 3.722656 -7.46875 2.988281 -7.175781 2.46875 -6.59375 C 1.957031 -6.019531 1.703125 -5.210938 1.703125 -4.171875 C 1.703125 -3.128906 1.960938 -2.304688 2.484375 -1.703125 C 3.003906 -1.097656 3.726562 -0.796875 4.65625 -0.796875 C 5.613281 -0.796875 6.347656 -1.085938 6.859375 -1.671875 C 7.367188 -2.265625 7.625 -3.097656 7.625 -4.171875 Z M 7.625 -4.171875 "/></g></g></g><g fill="#000000" fill-opacity="1"><g transform="translate(196.611083, 212.950006)"><g><path d="M 8 0 L 8 -5.515625 C 8 -6.117188 8.019531 -6.703125 8.0625 -7.265625 C 7.863281 -6.566406 7.691406 -6.019531 7.546875 -5.625 L 5.40625 0 L 4.625 0 L 2.46875 -5.625 L 2.140625 -6.625 L 1.9375 -7.265625 L 1.953125 -6.609375 L 1.984375 -5.515625 L 1.984375 0 L 0.984375 0 L 0.984375 -8.25 L 2.453125 -8.25 L 4.65625 -2.53125 C 4.726562 -2.300781 4.800781 -2.050781 4.875 -1.78125 C 4.945312 -1.519531 4.992188 -1.332031 5.015625 -1.21875 C 5.046875 -1.375 5.113281 -1.609375 5.21875 -1.921875 C 5.320312 -2.242188 5.390625 -2.445312 5.421875 -2.53125 L 7.578125 -8.25 L 9.015625 -8.25 L 9.015625 0 Z M 8 0 "/></g></g></g><g fill="#000000" fill-opacity="1"><g transform="translate(213.567175, 212.950006)"><g><path d="M 7.375 -5.765625 C 7.375 -4.984375 7.117188 -4.363281 6.609375 -3.90625 C 6.097656 -3.445312 5.40625 -3.21875 4.53125 -3.21875 L 2.109375 -3.21875 L 2.109375 0 L 0.984375 0 L 0.984375 -8.25 L 4.453125 -8.25 C 5.378906 -8.25 6.097656 -8.03125 6.609375 -7.59375 C 7.117188 -7.164062 7.375 -6.554688 7.375 -5.765625 Z M 6.25 -5.765625 C 6.25 -6.828125 5.609375 -7.359375 4.328125 -7.359375 L 2.109375 -7.359375 L 2.109375 -4.109375 L 4.375 -4.109375 C 5.625 -4.109375 6.25 -4.660156 6.25 -5.765625 Z M 6.25 -5.765625 "/></g></g></g><g fill="#000000" fill-opacity="1"><g transform="translate(228.531079, 212.950006)"><g><path d="M 4.28125 0.125 C 3.601562 0.125 3.015625 0 2.515625 -0.25 C 2.015625 -0.5 1.625 -0.859375 1.34375 -1.328125 C 1.0625 -1.796875 0.921875 -2.351562 0.921875 -3 L 0.921875 -8.25 L 2.046875 -8.25 L 2.046875 -3.09375 C 2.046875 -2.34375 2.234375 -1.769531 2.609375 -1.375 C 2.992188 -0.988281 3.550781 -0.796875 4.28125 -0.796875 C 5.019531 -0.796875 5.59375 -0.992188 6 -1.390625 C 6.414062 -1.796875 6.625 -2.390625 6.625 -3.171875 L 6.625 -8.25 L 7.734375 -8.25 L 7.734375 -3.109375 C 7.734375 -2.441406 7.59375 -1.863281 7.3125 -1.375 C 7.03125 -0.894531 6.628906 -0.523438 6.109375 -0.265625 C 5.597656 -0.00390625 4.988281 0.125 4.28125 0.125 Z M 4.28125 0.125 "/></g></g></g><g fill="#000000" fill-opacity="1"><g transform="translate(244.157093, 212.950006)"><g><path d="M 4.21875 -7.34375 L 4.21875 0 L 3.109375 0 L 3.109375 -7.34375 L 0.265625 -7.34375 L 0.265625 -8.25 L 7.0625 -8.25 L 7.0625 -7.34375 Z M 4.21875 -7.34375 "/></g></g></g><g fill="#000000" fill-opacity="1"><g transform="translate(258.447169, 212.950006)"><g><path d="M 0.984375 0 L 0.984375 -8.25 L 7.25 -8.25 L 7.25 -7.34375 L 2.109375 -7.34375 L 2.109375 -4.6875 L 6.890625 -4.6875 L 6.890625 -3.796875 L 2.109375 -3.796875 L 2.109375 -0.921875 L 7.484375 -0.921875 L 7.484375 0 Z M 0.984375 0 "/></g></g></g><g fill="#000000" fill-opacity="1"><g transform="translate(273.411074, 212.950006)"><g><path d="M 6.828125 0 L 4.671875 -3.421875 L 2.109375 -3.421875 L 2.109375 0 L 0.984375 0 L 0.984375 -8.25 L 4.875 -8.25 C 5.800781 -8.25 6.515625 -8.039062 7.015625 -7.625 C 7.523438 -7.21875 7.78125 -6.640625 7.78125 -5.890625 C 7.78125 -5.273438 7.597656 -4.757812 7.234375 -4.34375 C 6.878906 -3.925781 6.390625 -3.664062 5.765625 -3.5625 L 8.109375 0 Z M 6.65625 -5.890625 C 6.65625 -6.367188 6.488281 -6.734375 6.15625 -6.984375 C 5.832031 -7.234375 5.367188 -7.359375 4.765625 -7.359375 L 2.109375 -7.359375 L 2.109375 -4.3125 L 4.8125 -4.3125 C 5.394531 -4.3125 5.847656 -4.445312 6.171875 -4.71875 C 6.492188 -5 6.65625 -5.390625 6.65625 -5.890625 Z M 6.65625 -5.890625 "/></g></g></g></svg>